<?xml version="1.0" encoding="UTF-8"?>
<!-- Do not edit this file with editors other than draw.io -->
<!DOCTYPE svg PUBLIC "-//W3C//DTD SVG 1.1//EN" "http://www.w3.org/Graphics/SVG/1.1/DTD/svg11.dtd">
<svg xmlns="http://www.w3.org/2000/svg" xmlns:xlink="http://www.w3.org/1999/xlink" version="1.1" width="547px" height="484px" viewBox="-0.5 -0.5 547 484" content="&lt;mxfile host=&quot;app.diagrams.net&quot; modified=&quot;2024-03-29T17:49:16.066Z&quot; agent=&quot;Mozilla/5.0 (Windows NT 10.0; Win64; x64) AppleWebKit/537.36 (KHTML, like Gecko) Chrome/123.0.0.0 Safari/537.36&quot; etag=&quot;uf8ROWb3YAU6nKfaXSXi&quot; version=&quot;24.2.1&quot; type=&quot;device&quot; scale=&quot;1&quot; border=&quot;0&quot;&gt;&#10;  &lt;diagram name=&quot;Page-1&quot; id=&quot;j3bJ796ipqwLlpyQ7kwF&quot;&gt;&#10;    &lt;mxGraphModel dx=&quot;989&quot; dy=&quot;532&quot; grid=&quot;1&quot; gridSize=&quot;10&quot; guides=&quot;1&quot; tooltips=&quot;1&quot; connect=&quot;1&quot; arrows=&quot;1&quot; fold=&quot;1&quot; page=&quot;1&quot; pageScale=&quot;1&quot; pageWidth=&quot;827&quot; pageHeight=&quot;1169&quot; math=&quot;0&quot; shadow=&quot;0&quot;&gt;&#10;      &lt;root&gt;&#10;        &lt;mxCell id=&quot;0&quot; /&gt;&#10;        &lt;mxCell id=&quot;1&quot; parent=&quot;0&quot; /&gt;&#10;        &lt;mxCell id=&quot;htj9lrFPSWlIHF2Fdgeb-1&quot; value=&quot;&quot; style=&quot;rounded=1;whiteSpace=wrap;html=1;perimeterSpacing=0;arcSize=5;fillColor=#697a91;strokeColor=default;strokeWidth=3;&quot; parent=&quot;1&quot; vertex=&quot;1&quot;&gt;&#10;          &lt;mxGeometry x=&quot;140&quot; y=&quot;130&quot; width=&quot;540&quot; height=&quot;480&quot; as=&quot;geometry&quot; /&gt;&#10;        &lt;/mxCell&gt;&#10;        &lt;mxCell id=&quot;htj9lrFPSWlIHF2Fdgeb-2&quot; value=&quot;&quot; style=&quot;rounded=1;whiteSpace=wrap;html=1;fillColor=#d7e0e5;strokeColor=default;arcSize=8;strokeWidth=2;fillStyle=solid;gradientColor=none;shadow=1;&quot; parent=&quot;1&quot; vertex=&quot;1&quot;&gt;&#10;          &lt;mxGeometry x=&quot;160&quot; y=&quot;150&quot; width=&quot;150&quot; height=&quot;440&quot; as=&quot;geometry&quot; /&gt;&#10;        &lt;/mxCell&gt;&#10;        &lt;mxCell id=&quot;htj9lrFPSWlIHF2Fdgeb-3&quot; value=&quot;&quot; style=&quot;rounded=1;whiteSpace=wrap;html=1;fillColor=#D7E0E5;strokeColor=default;arcSize=8;strokeWidth=2;shadow=1;fillStyle=solid;&quot; parent=&quot;1&quot; vertex=&quot;1&quot;&gt;&#10;          &lt;mxGeometry x=&quot;320&quot; y=&quot;150&quot; width=&quot;150&quot; height=&quot;440&quot; as=&quot;geometry&quot; /&gt;&#10;        &lt;/mxCell&gt;&#10;        &lt;mxCell id=&quot;htj9lrFPSWlIHF2Fdgeb-4&quot; value=&quot;&quot; style=&quot;rounded=1;whiteSpace=wrap;html=1;fillColor=#D7E0E5;strokeColor=default;arcSize=8;strokeWidth=2;shadow=1;shadowBlur=2;&quot; parent=&quot;1&quot; vertex=&quot;1&quot;&gt;&#10;          &lt;mxGeometry x=&quot;480&quot; y=&quot;150&quot; width=&quot;150&quot; height=&quot;440&quot; as=&quot;geometry&quot; /&gt;&#10;        &lt;/mxCell&gt;&#10;        &lt;mxCell id=&quot;htj9lrFPSWlIHF2Fdgeb-5&quot; value=&quot;&quot; style=&quot;rounded=1;whiteSpace=wrap;html=1;fillStyle=solid;fillColor=#385170;strokeColor=default;fontColor=#000000;&quot; parent=&quot;1&quot; vertex=&quot;1&quot;&gt;&#10;          &lt;mxGeometry x=&quot;175&quot; y=&quot;170&quot; width=&quot;120&quot; height=&quot;100&quot; as=&quot;geometry&quot; /&gt;&#10;        &lt;/mxCell&gt;&#10;        &lt;mxCell id=&quot;htj9lrFPSWlIHF2Fdgeb-9&quot; value=&quot;&quot; style=&quot;rounded=1;whiteSpace=wrap;html=1;fillColor=#385170;fontColor=#ffffff;strokeColor=default;&quot; parent=&quot;1&quot; vertex=&quot;1&quot;&gt;&#10;          &lt;mxGeometry x=&quot;495&quot; y=&quot;170&quot; width=&quot;120&quot; height=&quot;100&quot; as=&quot;geometry&quot; /&gt;&#10;        &lt;/mxCell&gt;&#10;        &lt;mxCell id=&quot;htj9lrFPSWlIHF2Fdgeb-10&quot; value=&quot;&quot; style=&quot;rounded=1;whiteSpace=wrap;html=1;fillColor=#385170;fontColor=#ffffff;strokeColor=default;&quot; parent=&quot;1&quot; vertex=&quot;1&quot;&gt;&#10;          &lt;mxGeometry x=&quot;335&quot; y=&quot;170&quot; width=&quot;120&quot; height=&quot;100&quot; as=&quot;geometry&quot; /&gt;&#10;        &lt;/mxCell&gt;&#10;        &lt;mxCell id=&quot;htj9lrFPSWlIHF2Fdgeb-27&quot; value=&quot;&quot; style=&quot;rounded=1;whiteSpace=wrap;html=1;fillColor=#385170;strokeColor=default;fontColor=#000000;gradientColor=none;opacity=30;&quot; parent=&quot;1&quot; vertex=&quot;1&quot;&gt;&#10;          &lt;mxGeometry x=&quot;495&quot; y=&quot;390&quot; width=&quot;120&quot; height=&quot;100&quot; as=&quot;geometry&quot; /&gt;&#10;        &lt;/mxCell&gt;&#10;        &lt;mxCell id=&quot;htj9lrFPSWlIHF2Fdgeb-40&quot; value=&quot;&quot; style=&quot;verticalLabelPosition=bottom;verticalAlign=top;html=1;shape=mxgraph.basic.rect;fillColor2=none;strokeWidth=2;size=8;indent=5;top=1;topLeftStyle=rounded;bottomLeftStyle=rounded;fillColor=#d7e0e5;strokeColor=default;right=0;shadow=1;&quot; parent=&quot;1&quot; vertex=&quot;1&quot;&gt;&#10;          &lt;mxGeometry x=&quot;640&quot; y=&quot;150&quot; width=&quot;38&quot; height=&quot;440&quot; as=&quot;geometry&quot; /&gt;&#10;        &lt;/mxCell&gt;&#10;        &lt;mxCell id=&quot;htj9lrFPSWlIHF2Fdgeb-41&quot; value=&quot;&quot; style=&quot;verticalLabelPosition=bottom;verticalAlign=top;html=1;shape=mxgraph.basic.rect;fillColor2=none;strokeWidth=1;size=12;indent=5;topLeftStyle=rounded;topRightStyle=rounded;fillColor=#385170;strokeColor=default;fontColor=#000000;bottom=0;&quot; parent=&quot;1&quot; vertex=&quot;1&quot;&gt;&#10;          &lt;mxGeometry x=&quot;175&quot; y=&quot;500&quot; width=&quot;120&quot; height=&quot;89&quot; as=&quot;geometry&quot; /&gt;&#10;        &lt;/mxCell&gt;&#10;        &lt;mxCell id=&quot;htj9lrFPSWlIHF2Fdgeb-54&quot; value=&quot;&quot; style=&quot;verticalLabelPosition=bottom;verticalAlign=top;html=1;shape=mxgraph.basic.rect;fillColor2=none;strokeWidth=1;size=8;indent=5;top=1;topLeftStyle=rounded;bottomLeftStyle=rounded;fillColor=#385170;strokeColor=default;fontColor=#ffffff;right=0;&quot; parent=&quot;1&quot; vertex=&quot;1&quot;&gt;&#10;          &lt;mxGeometry x=&quot;652&quot; y=&quot;170&quot; width=&quot;26&quot; height=&quot;100&quot; as=&quot;geometry&quot; /&gt;&#10;        &lt;/mxCell&gt;&#10;        &lt;mxCell id=&quot;htj9lrFPSWlIHF2Fdgeb-57&quot; value=&quot;&quot; style=&quot;rounded=1;whiteSpace=wrap;html=1;fillStyle=solid;fillColor=#385170;strokeColor=default;fontColor=#000000;&quot; parent=&quot;1&quot; vertex=&quot;1&quot;&gt;&#10;          &lt;mxGeometry x=&quot;175&quot; y=&quot;280&quot; width=&quot;120&quot; height=&quot;100&quot; as=&quot;geometry&quot; /&gt;&#10;        &lt;/mxCell&gt;&#10;        &lt;mxCell id=&quot;htj9lrFPSWlIHF2Fdgeb-58&quot; value=&quot;&quot; style=&quot;rounded=1;whiteSpace=wrap;html=1;fillStyle=solid;fillColor=#385170;strokeColor=default;fontColor=#000000;&quot; parent=&quot;1&quot; vertex=&quot;1&quot;&gt;&#10;          &lt;mxGeometry x=&quot;175&quot; y=&quot;390&quot; width=&quot;120&quot; height=&quot;100&quot; as=&quot;geometry&quot; /&gt;&#10;        &lt;/mxCell&gt;&#10;        &lt;mxCell id=&quot;htj9lrFPSWlIHF2Fdgeb-59&quot; value=&quot;&quot; style=&quot;rounded=1;whiteSpace=wrap;html=1;fillColor=#385170;fontColor=#ffffff;strokeColor=default;&quot; parent=&quot;1&quot; vertex=&quot;1&quot;&gt;&#10;          &lt;mxGeometry x=&quot;335&quot; y=&quot;280&quot; width=&quot;120&quot; height=&quot;100&quot; as=&quot;geometry&quot; /&gt;&#10;        &lt;/mxCell&gt;&#10;        &lt;mxCell id=&quot;htj9lrFPSWlIHF2Fdgeb-20&quot; value=&quot;&quot; style=&quot;html=1;shadow=0;dashed=0;align=center;verticalAlign=middle;shape=mxgraph.arrows2.jumpInArrow;dy=12.8;dx=53.55;arrowHead=60.5;flipV=1;flipH=0;fillColor=#FFFFFF;strokeColor=#000000;gradientColor=#15203c;gradientDirection=east;&quot; parent=&quot;1&quot; vertex=&quot;1&quot;&gt;&#10;          &lt;mxGeometry x=&quot;230&quot; y=&quot;270&quot; width=&quot;265&quot; height=&quot;200&quot; as=&quot;geometry&quot; /&gt;&#10;        &lt;/mxCell&gt;&#10;        &lt;mxCell id=&quot;htj9lrFPSWlIHF2Fdgeb-60&quot; value=&quot;&quot; style=&quot;rounded=1;whiteSpace=wrap;html=1;fillColor=#385170;fontColor=#ffffff;strokeColor=default;&quot; parent=&quot;1&quot; vertex=&quot;1&quot;&gt;&#10;          &lt;mxGeometry x=&quot;495&quot; y=&quot;280&quot; width=&quot;120&quot; height=&quot;100&quot; as=&quot;geometry&quot; /&gt;&#10;        &lt;/mxCell&gt;&#10;        &lt;mxCell id=&quot;htj9lrFPSWlIHF2Fdgeb-61&quot; value=&quot;&quot; style=&quot;verticalLabelPosition=bottom;verticalAlign=top;html=1;shape=mxgraph.basic.rect;fillColor2=none;strokeWidth=1;size=8;indent=5;top=1;topLeftStyle=rounded;bottomLeftStyle=rounded;fillColor=#385170;strokeColor=default;fontColor=#ffffff;right=0;&quot; parent=&quot;1&quot; vertex=&quot;1&quot;&gt;&#10;          &lt;mxGeometry x=&quot;652&quot; y=&quot;280&quot; width=&quot;27&quot; height=&quot;100&quot; as=&quot;geometry&quot; /&gt;&#10;        &lt;/mxCell&gt;&#10;      &lt;/root&gt;&#10;    &lt;/mxGraphModel&gt;&#10;  &lt;/diagram&gt;&#10;&lt;/mxfile&gt;&#10;"><defs><linearGradient x1="0%" y1="0%" x2="100%" y2="0%" id="mx-gradient-ffffff-1-15203c-1-e-0"><stop offset="0%" style="stop-color: rgb(255, 255, 255); stop-opacity: 1;"/><stop offset="100%" style="stop-color: rgb(21, 32, 60); stop-opacity: 1;"/></linearGradient></defs><g><g><rect x="1" y="1" width="540" height="480" rx="24" ry="24" fill="#697a91" stroke="rgb(0, 0, 0)" stroke-width="3" pointer-events="all"/></g><g style="filter: drop-shadow(rgba(0, 0, 0, 0.25) 2px 3px 2px);"><rect x="21" y="21" width="150" height="440" rx="12" ry="12" fill="#d7e0e5" stroke="rgb(0, 0, 0)" stroke-width="2" pointer-events="all"/></g><g style="filter: drop-shadow(rgba(0, 0, 0, 0.25) 2px 3px 2px);"><rect x="181" y="21" width="150" height="440" rx="12" ry="12" fill="#d7e0e5" stroke="rgb(0, 0, 0)" stroke-width="2" pointer-events="all"/></g><g style="filter: drop-shadow(rgba(0, 0, 0, 0.25) 2px 3px 2px);"><rect x="341" y="21" width="150" height="440" rx="12" ry="12" fill="#d7e0e5" stroke="rgb(0, 0, 0)" stroke-width="2" pointer-events="all"/></g><g><rect x="36" y="41" width="120" height="100" rx="15" ry="15" fill="#385170" stroke="rgb(0, 0, 0)" pointer-events="all"/></g><g><rect x="356" y="41" width="120" height="100" rx="15" ry="15" fill="#385170" stroke="rgb(0, 0, 0)" pointer-events="all"/></g><g><rect x="196" y="41" width="120" height="100" rx="15" ry="15" fill="#385170" stroke="rgb(0, 0, 0)" pointer-events="all"/></g><g><rect x="356" y="261" width="120" height="100" rx="15" ry="15" fill-opacity="0.3" fill="#385170" stroke="rgb(0, 0, 0)" stroke-opacity="0.3" pointer-events="all"/></g><g style="filter: drop-shadow(rgba(0, 0, 0, 0.25) 2px 3px 2px);"><path d="M 501 29 C 501 24.58 504.58 21 509 21 L 539 21 L 539 461 L 539 461 L 509 461 C 504.58 461 501 457.42 501 453 L 501 29 Z" fill="#d7e0e5" stroke="none" pointer-events="all"/><path d="M 506 31.5 L 506 450.5 C 506 453.54 508.46 456 511.5 456 L 539 456 L 539 26 L 511.5 26 C 508.46 26 506 28.46 506 31.5" fill="none" stroke="none" pointer-events="all"/><path d="M 539 461 L 509 461 C 504.58 461 501 457.42 501 453 L 501 29 C 501 24.58 504.58 21 509 21 L 539 21" fill="none" stroke="rgb(0, 0, 0)" stroke-width="2" stroke-miterlimit="10" pointer-events="all"/></g><g><path d="M 36 383 C 36 376.37 41.37 371 48 371 L 144 371 C 150.63 371 156 376.37 156 383 L 156 460 L 36 460 L 36 460 L 36 383 Z" fill="#385170" stroke="none" pointer-events="all"/><path d="M 41 385.5 L 41 460 L 151 460 L 151 385.5 C 151 380.25 146.75 376 141.5 376 L 50.5 376 C 45.25 376 41 380.25 41 385.5" fill="none" stroke="none" pointer-events="all"/><path d="M 36 460 L 36 383 C 36 376.37 41.37 371 48 371 L 144 371 C 150.63 371 156 376.37 156 383 L 156 460" fill="none" stroke="rgb(0, 0, 0)" stroke-miterlimit="10" pointer-events="all"/></g><g><path d="M 513 49 C 513 44.58 516.58 41 521 41 L 539 41 L 539 141 L 539 141 L 521 141 C 516.58 141 513 137.42 513 133 L 513 49 Z" fill="#385170" stroke="none" pointer-events="all"/><path d="M 518 51.5 L 518 130.5 C 518 133.54 520.46 136 523.5 136 L 539 136 L 539 46 L 523.5 46 C 520.46 46 518 48.46 518 51.5" fill="none" stroke="none" pointer-events="all"/><path d="M 539 141 L 521 141 C 516.58 141 513 137.42 513 133 L 513 49 C 513 44.58 516.58 41 521 41 L 539 41" fill="none" stroke="rgb(0, 0, 0)" stroke-miterlimit="10" pointer-events="all"/></g><g><rect x="36" y="151" width="120" height="100" rx="15" ry="15" fill="#385170" stroke="rgb(0, 0, 0)" pointer-events="all"/></g><g><rect x="36" y="261" width="120" height="100" rx="15" ry="15" fill="#385170" stroke="rgb(0, 0, 0)" pointer-events="all"/></g><g><rect x="196" y="151" width="120" height="100" rx="15" ry="15" fill="#385170" stroke="rgb(0, 0, 0)" pointer-events="all"/></g><g><path d="M 302.45 141 L 356 171.25 L 302.45 201.5 L 302.45 184.05 C 185.67 184.05 91 254.32 91 341 C 91 240.18 185.67 158.45 302.45 158.45 Z" fill="url(#mx-gradient-ffffff-1-15203c-1-e-0)" stroke="#000000" stroke-miterlimit="10" transform="translate(0,241)scale(1,-1)translate(0,-241)" pointer-events="all"/></g><g><rect x="356" y="151" width="120" height="100" rx="15" ry="15" fill="#385170" stroke="rgb(0, 0, 0)" pointer-events="all"/></g><g><path d="M 513 159 C 513 154.58 516.58 151 521 151 L 540 151 L 540 251 L 540 251 L 521 251 C 516.58 251 513 247.42 513 243 L 513 159 Z" fill="#385170" stroke="none" pointer-events="all"/><path d="M 518 161.5 L 518 240.5 C 518 243.54 520.46 246 523.5 246 L 540 246 L 540 156 L 523.5 156 C 520.46 156 518 158.46 518 161.5" fill="none" stroke="none" pointer-events="all"/><path d="M 540 251 L 521 251 C 516.58 251 513 247.42 513 243 L 513 159 C 513 154.58 516.58 151 521 151 L 540 151" fill="none" stroke="rgb(0, 0, 0)" stroke-miterlimit="10" pointer-events="all"/></g></g></svg>